
<svg width="81px" height="81px" viewBox="0 0 81 81" version="1.1" xmlns="http://www.w3.org/2000/svg" xmlns:xlink="http://www.w3.org/1999/xlink">
    <!-- Generator: Sketch 49 (51002) - http://www.bohemiancoding.com/sketch -->
    <desc>Created with Sketch.</desc>
    <defs>
        <linearGradient x1="50%" y1="0%" x2="50%" y2="100%" id="linearGradient-1">
            <stop stop-color="#1ABC9C" offset="0%"></stop>
            <stop stop-color="#2ECC71" offset="100%"></stop>
        </linearGradient>
    </defs>
    <g id="Page-1" stroke="none" stroke-width="1" fill="none" fill-rule="evenodd">
        <circle id="Oval-2" fill="url(#linearGradient-1)" cx="40.5" cy="40.5" r="40.5"></circle>
        <g id="Group" transform="translate(14.000000, 14.000000)" fill="#FFFFFF" fill-rule="nonzero">
            <ellipse id="Oval" cx="43.1" cy="40.4" rx="4.4" ry="4.9"></ellipse>
            <path d="M13.7,44.9 C14.6,40.2 15.1,35.4 15.1,30.7 C15.1,29.8 15.1,28.9 15.1,27.9 C15.1,25.8 15,23.9 15.2,21.9 C15.5,19 16.2,16.6 17.4,15 C18.3,13.8 19.5,12.9 20.6,12 C24.2,9.2 29.1,6 34.2,5.9 C35.6,5.9 36.7,6.1 37.4,6.6 C38.1,7 38.5,7.8 38.5,8.4 C38.5,9.2 37.6,10.3 36.1,11.1 C33.9,12.4 31.4,13.2 28.9,14.1 L28.3,14.3 C26.8,14.8 23.3,16 22.3,19.6 C21.2,23.6 24.1,27 25.2,28.3 L28.6,24.6 C26.9,22.6 26.7,21.6 26.8,21.2 C27,20.6 27.9,20 29.6,19.5 L30.2,19.3 C32.9,18.4 35.7,17.5 38.3,16 C41.4,14.2 43.1,11.7 43.2,8.8 C43.3,6.2 41.9,3.5 39.7,2.1 C38.2,1.1 36.2,0.7 34,0.7 C27.6,0.9 22,4.6 17.9,7.7 C16.5,8.8 14.9,10 13.7,11.8 C11.9,14.3 10.8,17.6 10.4,21.6 C10.2,23.9 10.3,26.1 10.3,28.2 C10.3,29.1 10.3,30 10.3,30.9 C10.3,35.3 9.9,39.7 9,43.9 L13.7,44.9 Z" id="Shape"></path>
            <path d="M2.8,47.5 L18,47.5 L15.2,42 L2.7,42.4 C1.6,42.4 0.7,43.3 0.5,44.5 C0.3,46 1.4,47.5 2.8,47.5 Z" id="Shape"></path>
            <path d="M19.8,23.7 L19.8,37 C19.8,42.3 23.6,46.5 28.3,46.5 L39,46.5 C37.3,45.1 36.3,42.8 36.3,40.3 C36.3,36 39.4,32.5 43.3,32.5 C44.7,32.5 46,33 47.1,33.8 L47.1,23.7 L19.8,23.7 Z M22.3,35.3 C22.3,34.8 22.7,34.4 23.1,34.4 C23.1,34.4 23.1,34.4 23.1,34.4 C23.5,34.4 23.9,34.8 23.9,35.3 C23.9,35.7 24,36.2 24.2,36.6 C25.3,39.4 27.2,41.7 29.6,43.2 C30,43.4 30.1,44 29.9,44.4 C29.8,44.7 29.5,44.9 29.2,44.9 C29.1,44.9 28.9,44.9 28.8,44.8 C26.1,43.2 23.9,40.5 22.7,37.4 C22.5,36.7 22.3,36 22.3,35.3 Z" id="Shape"></path>
        </g>
    </g>
</svg>