<?xml version="1.0" standalone="no"?>
<!DOCTYPE svg PUBLIC "-//W3C//DTD SVG 20010904//EN"
 "http://www.w3.org/TR/2001/REC-SVG-20010904/DTD/svg10.dtd">
<svg version="1.0" xmlns="http://www.w3.org/2000/svg"
 width="700.000000pt" height="700.000000pt" viewBox="0 0 700.000000 700.000000"
 preserveAspectRatio="xMidYMid meet">
<metadata>
Created by potrace 1.11, written by Peter Selinger 2001-2013
</metadata>
<g transform="translate(0.000000,700.000000) scale(0.100000,-0.100000)"
fill="#000000" stroke="none">
<path d="M3290 6994 c-19 -2 -87 -9 -150 -15 -578 -54 -1172 -277 -1660 -622
-302 -214 -623 -535 -837 -837 -337 -477 -546 -1024 -619 -1620 -25 -200 -25
-600 -1 -800 74 -598 291 -1162 631 -1635 211 -293 518 -600 811 -811 515
-370 1139 -594 1791 -643 795 -60 1629 175 2279 643 293 211 600 518 811 811
340 473 557 1037 631 1635 24 200 24 600 -1 800 -82 677 -334 1274 -759 1805
-104 129 -383 408 -512 512 -530 425 -1127 676 -1800 759 -122 14 -538 27
-615 18z m1010 -1275 c207 -25 317 -75 440 -199 146 -146 207 -302 198 -504
-9 -172 -71 -309 -202 -441 -158 -160 -374 -270 -844 -429 -303 -103 -362
-137 -362 -210 0 -33 36 -119 71 -167 l20 -29 830 0 829 0 0 -436 0 -436 -27
18 c-185 122 -418 123 -604 3 -121 -79 -212 -199 -266 -354 -25 -74 -27 -92
-27 -230 0 -136 3 -158 27 -230 33 -99 86 -189 152 -256 l49 -50 -524 3 -525
3 -80 27 c-116 40 -199 92 -290 183 -88 89 -140 169 -185 287 -57 147 -60 190
-60 859 l0 609 114 0 114 0 -14 53 c-18 69 -18 218 1 291 42 160 150 292 315
384 30 17 181 76 335 132 393 143 614 252 690 342 16 18 37 52 47 75 16 37 17
49 7 85 -15 58 -78 119 -154 148 -53 21 -77 24 -205 24 -123 0 -161 -4 -250
-26 -281 -71 -543 -206 -865 -448 -309 -232 -401 -347 -470 -586 -60 -209 -67
-293 -71 -844 -3 -523 -13 -721 -54 -1040 -11 -85 -20 -158 -20 -162 0 -5 19
-8 43 -8 l42 0 118 -233 c65 -127 117 -235 117 -239 0 -12 -1281 -10 -1338 2
-129 28 -207 183 -153 306 12 27 32 59 44 72 49 53 61 55 392 67 l310 10 17
100 c49 298 68 615 68 1166 0 229 5 463 10 520 37 365 143 657 327 896 87 114
240 245 488 419 517 362 983 522 1375 473z m750 -3018 c161 -61 260 -216 260
-404 0 -177 -79 -311 -224 -382 -63 -32 -81 -36 -147 -36 -114 0 -201 39 -273
123 -75 86 -108 176 -108 298 0 183 99 338 257 399 67 26 169 27 235 2z"/>
<path d="M3183 2809 c-126 -47 41 -462 284 -705 79 -78 179 -157 231 -182 30
-15 36 -15 60 -1 15 8 31 26 36 40 17 48 0 73 -92 142 -156 116 -276 262 -364
444 -30 62 -53 126 -59 165 -14 85 -45 116 -96 97z"/>
</g>
</svg>
